<svg width="310" height="387" viewBox="0 0 310 387" fill="none" xmlns="http://www.w3.org/2000/svg">
<path d="M265.02 83.2938C289.746 99.1653 300.988 136.009 303.94 171.576C306.893 207.143 301.628 241.438 288.87 278.758C276.111 316.077 255.931 356.509 224.178 370.313C192.355 384.187 148.975 371.429 116.356 350.372C83.8312 329.32 61.9785 299.894 41.5623 267.991C21.1461 236.088 2.08618 201.642 0.174071 162.882C-1.8181 124.126 13.3328 80.9955 43.3991 66.066C73.5407 51.1553 118.602 64.5495 160.311 68.6186C202.019 72.6877 240.299 67.4224 265.02 83.2938Z" fill="white"/>
<path d="M188.385 386.424C201.638 353.057 227.475 335.947 228.888 294.978C228.935 291.945 178.966 259.717 155.653 260.258C132.34 260.8 101.827 386.424 101.827 386.424H188.385Z" fill="white"/>
<path d="M236.169 26.1801H86.6428V292.623H236.169V26.1801Z" fill="#F8EFFF"/>
<path d="M221.272 142.838H101.549V189.195H221.272V142.838Z" fill="white"/>
<path d="M150.293 156.199H205.015" stroke="#B0C3FA" stroke-width="4.78" stroke-linecap="round" stroke-linejoin="round"/>
<path d="M150.293 170.544H172.523" stroke="#B0C3FA" stroke-width="4.78" stroke-linecap="round" stroke-linejoin="round"/>
<path d="M125.394 178.659C132.378 178.659 138.039 172.998 138.039 166.014C138.039 159.03 132.378 153.368 125.394 153.368C118.41 153.368 112.748 159.03 112.748 166.014C112.748 172.998 118.41 178.659 125.394 178.659Z" fill="#8800FF"/>
<path d="M206.847 347.349C216.798 331.91 225.718 316.227 226.533 292.623" stroke="#1B3C87" stroke-width="4.78" stroke-linecap="round" stroke-linejoin="round"/>
<path d="M186.03 384.07C188.844 377.144 192.226 370.463 196.142 364.096" stroke="#1B3C87" stroke-width="4.78" stroke-linecap="round" stroke-linejoin="round"/>
<path d="M221.272 74.7788H101.549V121.136H221.272V74.7788Z" fill="white"/>
<path d="M236.169 26.1801H86.6428V53.6184H236.169V26.1801Z" fill="#8800FF"/>
<path d="M236.169 265.18H86.6428V292.618H236.169V265.18Z" fill="#DCB4FF"/>
<path d="M150.293 39.8993H172.523" stroke="white" stroke-width="4.78" stroke-linecap="round" stroke-linejoin="round"/>
<path d="M161.408 285.488C165.047 285.488 167.997 282.538 167.997 278.899C167.997 275.26 165.047 272.31 161.408 272.31C157.769 272.31 154.819 275.26 154.819 278.899C154.819 282.538 157.769 285.488 161.408 285.488Z" fill="white"/>
<path d="M64.7432 386.424C71.8076 359.58 73.2205 256.91 64.7432 233.361C76.9882 224.413 127.381 186.265 134.917 180.143C141.981 184.852 138.684 223.942 115.607 240.897V252.671C127.852 252.671 146.22 293.645 135.859 336.973C129.873 355.953 148.41 386.424 148.41 386.424H64.7432Z" fill="white"/>
<path d="M124.904 260.202C133.89 274.938 140.775 304.199 133.504 334.614" stroke="#1B3C87" stroke-width="4.78" stroke-linecap="round" stroke-linejoin="round"/>
<path d="M125.394 183.392C128.756 180.797 131.281 178.829 132.562 177.788C139.626 182.497 136.33 221.587 113.252 238.542V247.109" stroke="#1B3C87" stroke-width="4.78" stroke-linecap="round" stroke-linejoin="round"/>
<path d="M69.4668 225.76C80.087 217.839 97.409 204.755 111.383 194.13" stroke="#1B3C87" stroke-width="4.78" stroke-linecap="round" stroke-linejoin="round"/>
<path d="M62.3883 384.07C67.9551 362.919 70.0085 294.709 66.4857 255.2" stroke="#1B3C87" stroke-width="4.78" stroke-linecap="round" stroke-linejoin="round"/>
<path d="M194.649 88.14H205.015" stroke="#B0C3FA" stroke-width="4.78" stroke-linecap="round" stroke-linejoin="round"/>
<path d="M150.293 88.14H184.283" stroke="#B0C3FA" stroke-width="4.78" stroke-linecap="round" stroke-linejoin="round"/>
<path d="M150.293 102.486H172.523" stroke="#B0C3FA" stroke-width="4.78" stroke-linecap="round" stroke-linejoin="round"/>
<path d="M125.394 110.6C132.378 110.6 138.039 104.939 138.039 97.9549C138.039 90.971 132.378 85.3095 125.394 85.3095C118.41 85.3095 112.748 90.971 112.748 97.9549C112.748 104.939 118.41 110.6 125.394 110.6Z" fill="#8800FF"/>
<path d="M251.833 223.787C286.604 247.024 230.31 291.135 215.277 303.318C211.387 300.53 208.688 262.688 251.833 223.787Z" fill="white"/>
<path d="M225.2 290.791C220.213 295.109 215.804 298.623 212.922 300.963C207.511 298.029 209.376 276.638 224.696 252.798" stroke="#1B3C87" stroke-width="4.78" stroke-linecap="round" stroke-linejoin="round"/>
<path d="M249.478 221.432C268.51 234.148 260.259 253.118 246.427 269.687" stroke="#1B3C87" stroke-width="4.78" stroke-linecap="round" stroke-linejoin="round"/>
<path d="M266.866 59.8257C270.31 59.8257 273.102 57.034 273.102 53.5902C273.102 50.1464 270.31 47.3546 266.866 47.3546C263.422 47.3546 260.631 50.1464 260.631 53.5902C260.631 57.034 263.422 59.8257 266.866 59.8257Z" stroke="#D4A3FF" stroke-width="4.78" stroke-linecap="round" stroke-linejoin="round"/>
<path d="M247.043 17.6086C247.043 17.4155 247.043 17.2177 247.043 17.0199C247.044 13.8915 248.09 10.8531 250.016 8.38802C251.942 5.92295 254.638 4.17288 257.673 3.41626C260.709 2.65964 263.91 2.93994 266.768 4.21257C269.625 5.4852 271.976 7.67704 273.444 10.4393C274.912 13.2016 275.415 16.3757 274.871 19.4565C274.328 22.5372 272.77 25.3478 270.445 27.4408C268.12 29.5339 265.161 30.7892 262.041 31.0071C258.92 31.225 255.816 30.3929 253.222 28.6433" stroke="#D4A3FF" stroke-width="4.78" stroke-linecap="round" stroke-linejoin="round"/>
<path d="M294.262 36.4329C292.252 35.8287 290.486 34.6004 289.22 32.926C287.954 31.2515 287.254 29.2177 287.22 27.1188C287.187 25.0199 287.822 22.9648 289.034 21.2509C290.246 19.537 291.972 18.2532 293.962 17.5852C295.952 16.9173 298.103 16.8998 300.104 17.5354C302.104 18.171 303.851 19.4266 305.091 21.1206C306.33 22.8146 306.999 24.8591 307 26.9582C307 29.0574 306.333 31.1023 305.094 32.7971" stroke="#D4A3FF" stroke-width="4.78" stroke-linecap="round" stroke-linejoin="round"/>
<path d="M239.47 202.749C202.735 224.884 198.497 272.922 203.206 275.748C216.393 270.568 265.373 216.407 265.373 191.446C265.373 185.794 248.993 175.103 245.23 173.573C243.12 172.749 245.367 169.278 237.855 176.224C237.902 183.124 237.365 196.005 239.47 202.749Z" fill="white"/>
<path d="M242.875 171.218C246.643 172.749 263.019 183.439 263.019 189.091C263.019 195.213 260.056 203.135 255.394 211.641" stroke="#1B3C87" stroke-width="4.78" stroke-linecap="round" stroke-linejoin="round"/>
<path d="M236.979 238.533C223.062 255.897 207.459 270.798 200.851 273.384C196.142 270.558 200.38 222.52 237.116 200.385" stroke="#1B3C87" stroke-width="4.78" stroke-linecap="round" stroke-linejoin="round"/>
<path d="M238.528 142.937C246.064 137.285 272.438 111.853 275.264 108.085C281.386 106.201 292.218 135.872 238.528 179.201" fill="white"/>
<path d="M257.532 156.886C250.951 164.094 243.809 170.768 236.174 176.846" stroke="#1B3C87" stroke-width="4.78" stroke-linecap="round" stroke-linejoin="round"/>
<path d="M236.174 140.582C243.709 134.93 270.083 109.498 272.909 105.73C277.242 104.398 283.939 118.884 268.42 142.838" stroke="#1B3C87" stroke-width="4.78" stroke-linecap="round" stroke-linejoin="round"/>
</svg>
