<svg width="109" height="59" viewBox="0 0 109 59" fill="none" xmlns="http://www.w3.org/2000/svg">
<path d="M94.7627 58.3345L80.8286 46.0168H95.0414L94.7627 58.3345Z" fill="white"/>
<path d="M20.1503 47.4114L89.4863 47.4114C100.096 47.4114 108.697 38.8041 108.697 28.1865V19.2248C108.697 8.60725 100.096 -1.14441e-05 89.4863 -1.14441e-05L20.1503 -1.14441e-05C9.54062 -1.14441e-05 0.939804 8.60725 0.939804 19.2248V28.1865C0.939804 38.8041 9.54062 47.4114 20.1503 47.4114Z" fill="white"/>
<path d="M69.2169 27.8889C71.5256 27.8889 73.3972 26.016 73.3972 23.7056C73.3972 21.3952 71.5256 19.5222 69.2169 19.5222C66.9083 19.5222 65.0367 21.3952 65.0367 23.7056C65.0367 26.016 66.9083 27.8889 69.2169 27.8889Z" fill="#7CE4DF"/>
<path d="M54.8183 27.8889C57.127 27.8889 58.9985 26.016 58.9985 23.7056C58.9985 21.3952 57.127 19.5222 54.8183 19.5222C52.5096 19.5222 50.638 21.3952 50.638 23.7056C50.638 26.016 52.5096 27.8889 54.8183 27.8889Z" fill="#7CE4DF"/>
<path d="M40.4197 27.8889C42.7284 27.8889 44.5999 26.016 44.5999 23.7056C44.5999 21.3952 42.7284 19.5222 40.4197 19.5222C38.111 19.5222 36.2395 21.3952 36.2395 23.7056C36.2395 26.016 38.111 27.8889 40.4197 27.8889Z" fill="#7CE4DF"/>
</svg>
