<svg width="40" height="40" viewBox="0 0 40 40" fill="none" xmlns="http://www.w3.org/2000/svg">
<path d="M20.03 39.06C9.52 39.06 1 30.54 1 20.03C1 9.52 9.52 1 20.03 1C30.54 1 39.06 9.52 39.06 20.03C39.06 30.54 30.54 39.06 20.03 39.06Z" stroke="#8800FF" stroke-width="1.5" stroke-miterlimit="10"/>
<path d="M17.1299 31.53H21.7599V19.93H24.99L25.33 16.05H21.75C21.75 16.05 21.75 14.6 21.75 13.84C21.75 12.92 21.9299 12.56 22.8199 12.56C23.5299 12.56 25.33 12.56 25.33 12.56V8.53003C25.33 8.53003 22.69 8.53003 22.12 8.53003C18.67 8.53003 17.12 10.05 17.12 12.95C17.12 15.48 17.12 16.05 17.12 16.05H14.71V19.98H17.12V31.53H17.1299Z" fill="#8800FF"/>
</svg>
