<svg width="40" height="40" viewBox="0 0 40 40" fill="none" xmlns="http://www.w3.org/2000/svg">
<path d="M20.03 39.06C9.52 39.06 1 30.54 1 20.03C1 9.52 9.52 1 20.03 1C30.54 1 39.06 9.52 39.06 20.03C39.06 30.54 30.54 39.06 20.03 39.06Z" stroke="#8800FF" stroke-width="1.5" stroke-miterlimit="10"/>
<path d="M20.03 11.47C22.82 11.47 23.15 11.48 24.25 11.53C25.27 11.58 25.82 11.75 26.19 11.89C26.68 12.08 27.02 12.31 27.39 12.67C27.76 13.04 27.98 13.38 28.17 13.87C28.31 14.24 28.48 14.79 28.53 15.81C28.58 16.91 28.59 17.24 28.59 20.03C28.59 22.82 28.58 23.15 28.53 24.25C28.48 25.27 28.31 25.82 28.17 26.19C27.98 26.68 27.75 27.02 27.39 27.39C27.03 27.76 26.68 27.98 26.19 28.17C25.82 28.31 25.27 28.48 24.25 28.53C23.15 28.58 22.82 28.59 20.03 28.59C17.24 28.59 16.91 28.58 15.81 28.53C14.79 28.48 14.24 28.31 13.87 28.17C13.38 27.98 13.04 27.75 12.67 27.39C12.3 27.02 12.08 26.68 11.89 26.19C11.75 25.82 11.58 25.27 11.53 24.25C11.48 23.15 11.47 22.82 11.47 20.03C11.47 17.24 11.48 16.91 11.53 15.81C11.58 14.79 11.75 14.24 11.89 13.87C12.08 13.38 12.31 13.04 12.67 12.67C13.04 12.3 13.38 12.08 13.87 11.89C14.24 11.75 14.79 11.58 15.81 11.53C16.92 11.48 17.25 11.47 20.03 11.47ZM20.03 9.58997C17.2 9.58997 16.84 9.59996 15.73 9.64996C14.62 9.69996 13.86 9.87998 13.2 10.14C12.51 10.41 11.93 10.76 11.35 11.34C10.77 11.92 10.41 12.5 10.15 13.19C9.88999 13.85 9.71998 14.61 9.66998 15.72C9.61998 16.83 9.60999 17.19 9.60999 20.02C9.60999 22.85 9.61998 23.21 9.66998 24.32C9.71998 25.43 9.89999 26.19 10.15 26.85C10.42 27.54 10.77 28.12 11.35 28.7C11.93 29.28 12.51 29.64 13.2 29.9C13.86 30.16 14.62 30.33 15.73 30.38C16.84 30.43 17.2 30.44 20.03 30.44C22.86 30.44 23.22 30.43 24.33 30.38C25.44 30.33 26.2 30.15 26.86 29.9C27.55 29.63 28.13 29.28 28.71 28.7C29.29 28.12 29.65 27.54 29.91 26.85C30.17 26.19 30.34 25.43 30.39 24.32C30.44 23.21 30.45 22.85 30.45 20.02C30.45 17.19 30.44 16.83 30.39 15.72C30.34 14.61 30.16 13.85 29.91 13.19C29.64 12.5 29.29 11.92 28.71 11.34C28.13 10.76 27.55 10.4 26.86 10.14C26.2 9.87998 25.44 9.70996 24.33 9.64996C23.22 9.60996 22.87 9.58997 20.03 9.58997Z" fill="#8800FF"/>
<path d="M20.0299 14.6699C17.0699 14.6699 14.6699 17.0699 14.6699 20.0299C14.6699 22.9899 17.0699 25.3899 20.0299 25.3899C22.9899 25.3899 25.3899 22.9899 25.3899 20.0299C25.3899 17.0699 22.9899 14.6699 20.0299 14.6699ZM20.0299 23.5099C18.1099 23.5099 16.5499 21.9499 16.5499 20.0299C16.5499 18.1099 18.1099 16.5499 20.0299 16.5499C21.9499 16.5499 23.5099 18.1099 23.5099 20.0299C23.5099 21.9499 21.9499 23.5099 20.0299 23.5099Z" fill="#8800FF"/>
<path d="M26.85 14.46C26.85 15.15 26.29 15.71 25.6 15.71C24.91 15.71 24.35 15.15 24.35 14.46C24.35 13.77 24.91 13.21 25.6 13.21C26.29 13.21 26.85 13.77 26.85 14.46Z" fill="#8800FF"/>
</svg>
