<svg width="398" height="393" viewBox="0 0 398 393" fill="none" xmlns="http://www.w3.org/2000/svg">
<path d="M30.0894 4.21214C0.614014 19.8443 3.04138 82.5642 1.82986 137.52C0.618378 192.476 -4.24933 239.646 9.46793 288.162C23.1852 336.679 55.4396 386.511 96.0703 392.334C136.823 398.278 186.064 360.314 241.736 340.061C297.409 319.809 359.486 317.256 384.128 287.055C408.77 256.855 395.77 199.002 369.816 159.362C343.741 119.699 304.682 98.3527 271.207 83.437C237.854 68.5169 209.959 60.0278 165.447 40.0142C120.813 20.1005 59.5604 -11.4331 30.0894 4.21214Z" fill="white"/>
<path d="M210.158 105.502C212.242 104.523 215.271 97.9282 215.271 88.1565C215.271 63.8636 196.821 52.4746 167.312 52.4746C146.709 52.4746 122.428 60.1736 106.95 89.079C95.3902 110.559 90.6866 157.983 81.04 175.043C74.9355 185.829 61.9862 207.673 52.0436 228.219C48.308 233.435 29.5274 273.228 58.205 286.303C86.8826 299.378 220.055 294.002 223.597 288.387C227.139 282.772 207.231 242.672 200.682 234.551C194.133 226.431 184.737 216.101 190.09 176.16C195.443 136.218 190.603 112.677 195.192 110.775C199.782 108.873 205.351 108.759 210.158 105.502Z" fill="#8800FF"/>
<path d="M68.7326 354.051C70.6347 274.856 91.2123 206.413 138.986 206.413C199.591 206.413 219.681 297.097 226.107 354.051H68.7326Z" fill="#46DBC9"/>
<path d="M48.9607 229.115C55.1454 214.981 62.6288 200.221 68.5455 188.889" stroke="#1B3C87" stroke-width="3.69" stroke-linecap="round" stroke-linejoin="round"/>
<path d="M173.231 213.148C173.675 217.646 174.345 221.416 175.293 223.466" stroke="#1B3C87" stroke-width="3.69" stroke-linecap="round" stroke-linejoin="round"/>
<path d="M317.409 247.23C320.16 246.362 328.413 240.717 329.985 238.546C331.557 236.375 335.291 241.642 328.511 248.768" fill="white"/>
<path d="M320.553 243.757C323.304 242.888 331.557 237.243 333.129 235.072C334.701 232.901 338.435 238.168 331.655 245.294" stroke="#1B3C87" stroke-width="4.78" stroke-linecap="round" stroke-linejoin="round"/>
<path d="M285.969 260.692C287.934 258.086 294.615 247.23 295.794 243.757C296.973 240.283 305.002 236.809 299.81 260.692" fill="white"/>
<path d="M289.899 256.349C291.864 253.744 298.545 242.888 299.724 239.414C300.742 236.423 306.837 233.431 305.191 247.925" stroke="#1B3C87" stroke-width="4.78" stroke-linecap="round" stroke-linejoin="round"/>
<path d="M242.196 300.102C244.703 305.851 255.707 328.431 255.707 328.431C255.707 328.431 280.86 268.942 283.611 267.639C286.362 266.337 328.413 250.27 336.273 245.494C339.417 243.757 348.849 246.796 331.557 259.389C314.265 271.981 297.366 282.403 295.401 286.745C293.436 291.088 279.288 358.393 279.288 358.393H226.578C223.088 358.393 211.298 315.838 211.298 315.838C211.298 315.838 239.292 296.533 242.196 300.102Z" fill="white"/>
<path d="M286.995 336.282C284.81 346.495 283.218 354.051 283.218 354.051H230.508C227.018 354.051 215.228 311.496 215.228 311.496C215.228 311.496 243.222 292.19 246.126 295.76C248.634 301.509 259.638 324.089 259.638 324.089C259.638 324.089 284.79 264.6 287.541 263.297C288.39 262.897 292.964 261.095 299.119 258.655" stroke="#1B3C87" stroke-width="4.78" stroke-linecap="round" stroke-linejoin="round"/>
<path d="M324.923 262.559C311.836 271.678 300.891 278.96 299.331 282.403C298.297 284.691 293.872 304.488 289.922 322.691" stroke="#1B3C87" stroke-width="4.78" stroke-linecap="round" stroke-linejoin="round"/>
<path d="M309.435 254.543C321.972 249.51 335.994 243.709 340.203 241.151C343.068 239.571 351.145 241.95 339.508 251.898" stroke="#1B3C87" stroke-width="4.78" stroke-linecap="round" stroke-linejoin="round"/>
<path d="M170.992 228.993C147.435 242.506 173.802 309.759 188.284 326.781C200.141 329.621 241.968 307.423 247.136 292.685C242.79 278.161 204.562 209.731 170.992 228.993Z" fill="#46DBC9"/>
<path d="M218.616 238.051C205.332 224.659 189.679 216.183 174.922 224.651C151.365 238.164 177.732 305.417 192.214 322.439C204.071 325.279 245.898 303.081 251.066 288.343C249.71 283.806 245.045 274.014 238.246 263.254" stroke="#1B3C87" stroke-width="4.78" stroke-linecap="round" stroke-linejoin="round"/>
<path d="M218.231 286.719C211.943 264.248 203.01 242.636 190.367 226.878" stroke="#1B3C87" stroke-width="4.78" stroke-linecap="round" stroke-linejoin="round"/>
<path d="M230.512 354.12C229.498 344.363 228.08 333.451 226.107 322.07" stroke="#1B3C87" stroke-width="4.78" stroke-linecap="round" stroke-linejoin="round"/>
<path d="M41.5052 322.686L52.9023 293.259L96.5256 322.786C95.1894 328.101 90.5834 344.254 87.7735 354.051" stroke="#1B3C87" stroke-width="4.78" stroke-linecap="round" stroke-linejoin="round"/>
<path d="M41.7174 354.285V316.347L48.988 297.601L92.6113 327.128C91.4323 331.749 87.8167 344.563 85.0421 354.268L41.7174 354.285Z" fill="white"/>
<path d="M100.078 224.216C76.1052 211.624 43.486 275.455 39.9489 298.469C45.058 310.628 86.3233 334.076 100.078 329.734C107.938 317.141 134.242 242.163 100.078 224.216Z" fill="#46DBC9"/>
<path d="M80.1532 226.878C62.4916 243.188 46.3117 278.304 43.879 294.127C48.988 306.285 90.2533 329.734 104.008 325.392C104.962 323.794 105.823 322.132 106.587 320.415" stroke="#1B3C87" stroke-width="4.78" stroke-linecap="round" stroke-linejoin="round"/>
<path d="M118.306 283.072C122.975 259.819 123.218 233.765 107.64 222.167" stroke="#1B3C87" stroke-width="4.78" stroke-linecap="round" stroke-linejoin="round"/>
<path d="M200.005 92.5201C200.162 102.264 132.503 111.486 132.131 125.324C131.758 139.163 131.533 147.154 131.533 147.154C133.954 160.058 128.709 205.676 127.229 210.44C132.905 215.745 161.377 215.361 164.484 212.153C164.082 208.944 164.141 187.094 164.955 184.594C166.151 184.756 167.356 184.838 168.563 184.84C190.338 184.84 207.995 159.044 207.995 127.214C207.995 110.581 207.721 106.181 200.024 92.4905" fill="white"/>
<path d="M197.834 78.3619C204.061 90.8277 207.227 104.598 207.071 118.531C207.091 125.56 206.327 132.57 204.793 139.43" stroke="#1B3C87" stroke-width="3.69" stroke-linecap="round" stroke-linejoin="round"/>
<path d="M122.452 151.98C123.591 157.777 123.295 169.28 122.452 181.512" stroke="#1B3C87" stroke-width="3.69" stroke-linecap="round" stroke-linejoin="round"/>
<path d="M147.469 52.2481C147.469 56.1278 146.319 59.9203 144.163 63.1461C142.008 66.3719 138.944 68.8861 135.36 70.3708C131.776 71.8554 127.831 72.2439 124.026 71.487C120.221 70.7301 116.726 68.8619 113.983 66.1186C111.239 63.3753 109.371 59.8801 108.614 56.075C107.857 52.2699 108.246 48.3258 109.731 44.7415C111.215 41.1572 113.729 38.0936 116.955 35.9382C120.181 33.7828 123.974 32.6323 127.853 32.6323C130.429 32.6313 132.981 33.138 135.361 34.1234C137.741 35.1089 139.904 36.5537 141.726 38.3754C143.548 40.1971 144.992 42.3599 145.978 44.7403C146.963 47.1206 147.47 49.6719 147.469 52.2481Z" fill="#8800FF"/>
<path d="M110.184 62.285C107.971 59.8509 106.405 56.8992 105.632 53.7016C104.859 50.5039 104.903 47.1632 105.76 43.9869C106.617 40.8107 108.259 37.9011 110.535 35.526C112.811 33.1509 115.649 31.3868 118.786 30.3959" stroke="#1B3C87" stroke-width="3.69" stroke-linecap="round" stroke-linejoin="round"/>
<path d="M186.787 51.1194C201.821 56.1305 210.567 66.7565 210.567 83.4528C210.567 93.2246 207.538 99.8189 205.442 100.798" stroke="#1B3C87" stroke-width="3.69" stroke-linecap="round" stroke-linejoin="round"/>
<path d="M84.6731 145.614C89.8209 124.852 94.4791 98.7483 102.224 84.3184C116.745 57.2239 138.987 48.7732 158.69 47.8735" stroke="#1B3C87" stroke-width="3.69" stroke-linecap="round" stroke-linejoin="round"/>
<path d="M201.323 84.6744C201.323 108.284 119.413 110.414 119.413 130.06" stroke="#1B3C87" stroke-width="3.69" stroke-linecap="round" stroke-linejoin="round"/>
<path d="M144.328 176.557C150.3 180.449 157.266 182.539 164.394 182.576C178.176 182.576 190.509 174.664 198.755 162.206" stroke="#1B3C87" stroke-width="4.78" stroke-linecap="round" stroke-linejoin="round"/>
<path d="M182.849 120.047C183.283 124.389 188.928 136.547 193.27 140.89" stroke="#1B3C87" stroke-width="4.78" stroke-linecap="round" stroke-linejoin="round"/>
<path d="M179.809 158.259C177.638 158.259 173.296 157.39 169.822 152.18" stroke="#1B3C87" stroke-width="4.78" stroke-linecap="round" stroke-linejoin="round"/>
<path d="M193.506 123.76C193.099 121.336 193.68 119.218 194.804 119.029C195.927 118.841 197.168 120.653 197.575 123.077C197.982 125.502 197.401 127.62 196.277 127.808C195.154 127.997 193.913 126.185 193.506 123.76Z" fill="#1B3C87"/>
<path d="M162.704 123.76C162.297 121.336 162.878 119.218 164.001 119.029C165.125 118.841 166.365 120.653 166.772 123.077C167.179 125.502 166.598 127.62 165.475 127.808C164.352 127.997 163.111 126.185 162.704 123.76Z" fill="#1B3C87"/>
<path d="M126.399 149.14C119.924 149.14 114.675 143.891 114.675 137.416C114.675 130.941 119.924 125.692 126.399 125.692C132.874 125.692 138.123 130.941 138.123 137.416C138.123 143.891 132.874 149.14 126.399 149.14Z" fill="white"/>
<path d="M134.075 148.109C132.301 149.33 130.239 150.069 128.093 150.252C125.947 150.435 123.791 150.056 121.836 149.153C119.88 148.249 118.194 146.852 116.943 145.099C115.692 143.346 114.919 141.297 114.7 139.154C114.482 137.012 114.825 134.849 115.696 132.879C116.567 130.909 117.935 129.2 119.668 127.92C121.4 126.64 123.435 125.833 125.574 125.579C127.713 125.324 129.881 125.631 131.865 126.469" stroke="#1B3C87" stroke-width="3.69" stroke-linecap="round" stroke-linejoin="round"/>
</svg>
