<svg width="40" height="40" viewBox="0 0 40 40" fill="none" xmlns="http://www.w3.org/2000/svg">
<path d="M20.11 39.06C9.60005 39.06 1.08008 30.54 1.08008 20.03C1.08008 9.52 9.60005 1 20.11 1C30.62 1 39.1401 9.52 39.1401 20.03C39.1401 30.54 30.62 39.06 20.11 39.06Z" stroke="#8800FF" stroke-width="1.5" stroke-miterlimit="10"/>
<path d="M15.4301 15.79H11.4901V28.51H15.4301V15.79Z" fill="#8800FF"/>
<path d="M13.4401 14.12C14.7301 14.12 15.7701 13.07 15.7701 11.77C15.7701 10.47 14.7301 9.42004 13.4401 9.42004C12.1501 9.42004 11.1101 10.47 11.1101 11.77C11.1101 13.07 12.1501 14.12 13.4401 14.12Z" fill="#8800FF"/>
<path d="M21.7202 21.83C21.7202 20.04 22.5402 18.98 24.1202 18.98C25.5702 18.98 26.2602 20 26.2602 21.83C26.2602 23.66 26.2602 28.51 26.2602 28.51H30.1802C30.1802 28.51 30.1802 23.86 30.1802 20.45C30.1802 17.04 28.2502 15.39 25.5502 15.39C22.8502 15.39 21.7202 17.49 21.7202 17.49V15.78H17.9402V28.5H21.7202C21.7202 28.51 21.7202 23.79 21.7202 21.83Z" fill="#8800FF"/>
</svg>
