<svg width="133" height="74" viewBox="0 0 133 74" fill="none" xmlns="http://www.w3.org/2000/svg">
<g clip-path="url(#clip0)">
<path d="M95.9666 0H37.0264C16.5773 0 0 16.5655 0 37C0 57.4345 16.5773 74 37.0264 74H95.9666C116.416 74 132.993 57.4345 132.993 37C132.993 16.5655 116.416 0 95.9666 0Z" fill="#AF92FC"/>
<path d="M98.2325 61.1625C111.587 61.1625 122.412 50.3446 122.412 37C122.412 23.6554 111.587 12.8375 98.2325 12.8375C84.8784 12.8375 74.0528 23.6554 74.0528 37C74.0528 50.3446 84.8784 61.1625 98.2325 61.1625Z" fill="#7CE4DF"/>
<path d="M34.2509 41.6136C35.2104 41.6136 36.0459 41.2201 36.7574 40.4331C37.4797 39.6138 37.8409 38.6219 37.8409 37.4576C37.8409 36.2933 37.4797 35.3014 36.7574 34.4821C36.0459 33.7059 35.2104 33.3178 34.2509 33.3178C33.2914 33.3178 32.4504 33.7166 31.7281 34.5144C31.0058 35.3122 30.6446 36.2933 30.6446 37.4576C30.6446 38.6219 31.0112 39.6138 31.7443 40.4331C32.4558 41.2201 33.2914 41.6136 34.2509 41.6136ZM34.7198 28.6604C37.1994 28.6604 39.3017 29.5337 41.0266 31.2802C42.7516 32.9943 43.6141 35.0535 43.6141 37.4576C43.6141 39.8833 42.7516 41.9479 41.0266 43.6512C39.3017 45.3977 37.1994 46.271 34.7198 46.271C34.5473 46.271 34.391 46.2656 34.2509 46.2548C34.0891 46.2656 33.922 46.271 33.7495 46.271C31.2807 46.271 29.1838 45.4085 27.4589 43.6836C25.734 41.9586 24.8715 39.8833 24.8715 37.4576C24.8715 35.0535 25.7286 32.9943 27.4427 31.2802C29.1784 29.5337 31.2807 28.6604 33.7495 28.6604C33.922 28.6604 34.0891 28.6658 34.2509 28.6766C34.391 28.6658 34.5473 28.6604 34.7198 28.6604ZM62.8903 43.2955C62.8903 44.0501 62.61 44.7078 62.0494 45.2684C61.4995 45.8182 60.815 46.0931 59.9956 46.0931H59.9471C59.1385 46.0931 58.4593 45.8182 57.9095 45.2684C57.3489 44.7078 57.0686 44.0501 57.0686 43.2955V37.1989C57.0686 35.4955 56.6266 34.4282 55.7426 33.9969C54.837 33.5549 53.8828 33.6412 52.8802 34.2557C51.9638 34.8163 51.4464 35.42 51.3278 36.0669C51.3062 36.1639 51.3116 35.9483 51.3439 35.42C51.3439 35.42 51.317 35.792 51.2631 36.5358V43.2955C51.2631 44.0501 50.9828 44.7078 50.4222 45.2684C49.8724 45.8182 49.1932 46.0931 48.3846 46.0931H48.3037C47.4952 46.0931 46.816 45.8182 46.2662 45.2684C45.7055 44.7078 45.4252 44.0501 45.4252 43.2955V31.361C45.4252 30.8328 45.6193 30.3746 46.0074 29.9865C46.3955 29.5983 46.8807 29.4043 47.4628 29.4043H49.3225C49.8939 29.4043 50.3791 29.6091 50.778 30.0188C51.1445 30.3853 51.3278 30.8274 51.3278 31.3448V30.7303C52.9773 29.7601 54.0715 29.221 54.6106 29.1132C57.2627 28.5634 59.3649 29.2587 60.9174 31.1993C62.2111 32.838 62.8633 34.9511 62.8741 37.5385L62.8903 43.2955Z" fill="#8800FF"/>
</g>
<defs>
<clipPath id="clip0">
<rect width="132.993" height="74" fill="white"/>
</clipPath>
</defs>
</svg>
