<svg width="40" height="40" viewBox="0 0 40 40" fill="none" xmlns="http://www.w3.org/2000/svg">
<path d="M20.1602 39.06C9.65016 39.06 1.13013 30.54 1.13013 20.03C1.13013 9.52 9.65016 1 20.1602 1C30.6702 1 39.1901 9.52 39.1901 20.03C39.1901 30.54 30.6702 39.06 20.1602 39.06Z" stroke="#8800FF" stroke-width="1.5" stroke-miterlimit="10"/>
<path d="M10.0201 26.4C11.8601 27.58 14.0501 28.27 16.4001 28.27C24.1201 28.27 28.4902 21.75 28.2302 15.89C29.0402 15.3 29.7501 14.57 30.3101 13.74C29.5601 14.07 28.7602 14.29 27.9202 14.39C28.7802 13.88 29.4401 13.06 29.7501 12.09C28.9501 12.57 28.0602 12.91 27.1102 13.1C26.3502 12.29 25.2701 11.79 24.0701 11.79C21.3801 11.79 19.4101 14.3 20.0201 16.9C16.5601 16.73 13.5001 15.07 11.4401 12.55C10.3501 14.42 10.8702 16.87 12.7302 18.11C12.0502 18.09 11.4101 17.9 10.8401 17.59C10.8001 19.52 12.1801 21.32 14.1801 21.72C13.5901 21.88 12.9501 21.92 12.3001 21.79C12.8301 23.44 14.3701 24.65 16.1901 24.68C14.4301 26.05 12.2301 26.66 10.0201 26.4Z" fill="#8800FF"/>
</svg>
